<svg width="18" height="19" viewBox="0 0 18 19" fill="none" xmlns="http://www.w3.org/2000/svg">
<path d="M15.75 2.75H10.5C9.94469 2.75188 9.40996 2.96042 9 3.335C8.59004 2.96042 8.05531 2.75188 7.5 2.75H2.25C2.05109 2.75 1.86032 2.82902 1.71967 2.96967C1.57902 3.11032 1.5 3.30109 1.5 3.5V14.75C1.5 14.9489 1.57902 15.1397 1.71967 15.2803C1.86032 15.421 2.05109 15.5 2.25 15.5H6.5685C6.96613 15.5009 7.3473 15.6589 7.629 15.9395L8.46975 16.7803C8.4765 16.787 8.4855 16.7893 8.49225 16.796C8.55675 16.856 8.62875 16.9085 8.71275 16.943H8.71425C8.89722 17.0188 9.10278 17.0188 9.28575 16.943H9.28725C9.37125 16.9085 9.44325 16.8553 9.50775 16.796C9.5145 16.7893 9.5235 16.787 9.53025 16.7803L10.371 15.9395C10.6527 15.6589 11.0339 15.5009 11.4315 15.5H15.75C15.9489 15.5 16.1397 15.421 16.2803 15.2803C16.421 15.1397 16.5 14.9489 16.5 14.75V3.5C16.5 3.30109 16.421 3.11032 16.2803 2.96967C16.1397 2.82902 15.9489 2.75 15.75 2.75ZM15 14H11.4315C10.8322 14.0017 10.2469 14.1816 9.75 14.5167V5C9.75 4.58675 10.086 4.25 10.5 4.25H15V14Z" fill="black"/>
</svg>
